<?xml version="1.0" encoding="UTF-8"?>
<!--Generator: Apple Native CoreSVG 175.5-->
<!DOCTYPE svg
PUBLIC "-//W3C//DTD SVG 1.1//EN"
       "http://www.w3.org/Graphics/SVG/1.1/DTD/svg11.dtd">
<svg version="1.1" xmlns="http://www.w3.org/2000/svg" xmlns:xlink="http://www.w3.org/1999/xlink" width="3300" height="2200">
 <!--glyph: "uni100393.medium", point size: 100.0, font version: "18.0d12e2", template writer version: "101"-->
 <style>.monochrome-0 {fill:#000000}
.monochrome-1 {fill:#000000}

.hierarchical-0:primary {fill:#212121}
.hierarchical-1:secondary {fill:#4D4D4D}

.SFSymbolsPreview212121 {fill:#212121;opacity:1.0}
.SFSymbolsPreview4D4D4D {fill:#4D4D4D;opacity:1.0}
</style>
 <g id="Notes">
  <rect height="2200" id="artboard" style="fill:white;opacity:1" width="3300" x="0" y="0"/>
  <line style="fill:none;stroke:black;opacity:1;stroke-width:0.5;" x1="263" x2="3036" y1="292" y2="292"/>
  <text style="stroke:none;fill:black;font-family:sans-serif;font-size:13;font-weight:bold;" transform="matrix(1 0 0 1 263 322)">Weight/Scale Variations</text>
  <text style="stroke:none;fill:black;font-family:sans-serif;font-size:13;text-anchor:middle;" transform="matrix(1 0 0 1 559.711 322)">Ultralight</text>
  <text style="stroke:none;fill:black;font-family:sans-serif;font-size:13;text-anchor:middle;" transform="matrix(1 0 0 1 856.422 322)">Thin</text>
  <text style="stroke:none;fill:black;font-family:sans-serif;font-size:13;text-anchor:middle;" transform="matrix(1 0 0 1 1153.13 322)">Light</text>
  <text style="stroke:none;fill:black;font-family:sans-serif;font-size:13;text-anchor:middle;" transform="matrix(1 0 0 1 1449.84 322)">Regular</text>
  <text style="stroke:none;fill:black;font-family:sans-serif;font-size:13;text-anchor:middle;" transform="matrix(1 0 0 1 1746.56 322)">Medium</text>
  <text style="stroke:none;fill:black;font-family:sans-serif;font-size:13;text-anchor:middle;" transform="matrix(1 0 0 1 2043.27 322)">Semibold</text>
  <text style="stroke:none;fill:black;font-family:sans-serif;font-size:13;text-anchor:middle;" transform="matrix(1 0 0 1 2339.98 322)">Bold</text>
  <text style="stroke:none;fill:black;font-family:sans-serif;font-size:13;text-anchor:middle;" transform="matrix(1 0 0 1 2636.69 322)">Heavy</text>
  <text style="stroke:none;fill:black;font-family:sans-serif;font-size:13;text-anchor:middle;" transform="matrix(1 0 0 1 2933.4 322)">Black</text>
  <line style="fill:none;stroke:black;opacity:1;stroke-width:0.5;" x1="263" x2="3036" y1="1903" y2="1903"/>
  <g transform="matrix(1 0 0 1 263 1933)">
   <path d="M9.24805 0.830078C13.5547 0.830078 17.1387-2.74414 17.1387-7.05078C17.1387-11.3574 13.5449-14.9316 9.23828-14.9316C4.94141-14.9316 1.36719-11.3574 1.36719-7.05078C1.36719-2.74414 4.95117 0.830078 9.24805 0.830078ZM9.24805-0.654297C5.70312-0.654297 2.87109-3.49609 2.87109-7.05078C2.87109-10.6055 5.69336-13.4473 9.23828-13.4473C12.793-13.4473 15.6445-10.6055 15.6445-7.05078C15.6445-3.49609 12.8027-0.654297 9.24805-0.654297ZM5.6543-7.05078C5.6543-6.62109 5.95703-6.32812 6.40625-6.32812L8.50586-6.32812L8.50586-4.20898C8.50586-3.76953 8.79883-3.4668 9.22852-3.4668C9.67773-3.4668 9.9707-3.76953 9.9707-4.20898L9.9707-6.32812L12.0898-6.32812C12.5293-6.32812 12.832-6.62109 12.832-7.05078C12.832-7.49023 12.5293-7.79297 12.0898-7.79297L9.9707-7.79297L9.9707-9.90234C9.9707-10.3516 9.67773-10.6543 9.22852-10.6543C8.79883-10.6543 8.50586-10.3516 8.50586-9.90234L8.50586-7.79297L6.40625-7.79297C5.95703-7.79297 5.6543-7.49023 5.6543-7.05078Z"/>
  </g>
  <g transform="matrix(1 0 0 1 281.867 1933)">
   <path d="M11.709 2.91016C17.1582 2.91016 21.6699-1.61133 21.6699-7.05078C21.6699-12.5 17.1484-17.0117 11.6992-17.0117C6.25977-17.0117 1.74805-12.5 1.74805-7.05078C1.74805-1.61133 6.26953 2.91016 11.709 2.91016ZM11.709 1.25C7.09961 1.25 3.41797-2.44141 3.41797-7.05078C3.41797-11.6602 7.08984-15.3516 11.6992-15.3516C16.3086-15.3516 20.0098-11.6602 20.0098-7.05078C20.0098-2.44141 16.3184 1.25 11.709 1.25ZM7.17773-7.05078C7.17773-6.57227 7.50977-6.25 8.00781-6.25L10.8789-6.25L10.8789-3.36914C10.8789-2.88086 11.2109-2.53906 11.6895-2.53906C12.1777-2.53906 12.5195-2.87109 12.5195-3.36914L12.5195-6.25L15.4004-6.25C15.8887-6.25 16.2305-6.57227 16.2305-7.05078C16.2305-7.53906 15.8887-7.88086 15.4004-7.88086L12.5195-7.88086L12.5195-10.752C12.5195-11.25 12.1777-11.5918 11.6895-11.5918C11.2109-11.5918 10.8789-11.25 10.8789-10.752L10.8789-7.88086L8.00781-7.88086C7.50977-7.88086 7.17773-7.53906 7.17773-7.05078Z"/>
  </g>
  <g transform="matrix(1 0 0 1 305.646 1933)">
   <path d="M14.9707 5.66406C21.9336 5.66406 27.6953-0.0976562 27.6953-7.05078C27.6953-14.0137 21.9238-19.7754 14.9609-19.7754C8.00781-19.7754 2.25586-14.0137 2.25586-7.05078C2.25586-0.0976562 8.01758 5.66406 14.9707 5.66406ZM14.9707 3.84766C8.93555 3.84766 4.08203-1.01562 4.08203-7.05078C4.08203-13.0957 8.92578-17.9492 14.9609-17.9492C21.0059-17.9492 25.8691-13.0957 25.8691-7.05078C25.8691-1.01562 21.0156 3.84766 14.9707 3.84766ZM9.19922-7.05078C9.19922-6.5332 9.57031-6.17188 10.1172-6.17188L14.0625-6.17188L14.0625-2.2168C14.0625-1.67969 14.4336-1.29883 14.9512-1.29883C15.4883-1.29883 15.8594-1.66992 15.8594-2.2168L15.8594-6.17188L19.8145-6.17188C20.3516-6.17188 20.7324-6.5332 20.7324-7.05078C20.7324-7.59766 20.3613-7.96875 19.8145-7.96875L15.8594-7.96875L15.8594-11.9141C15.8594-12.4609 15.4883-12.8418 14.9512-12.8418C14.4336-12.8418 14.0625-12.4609 14.0625-11.9141L14.0625-7.96875L10.1172-7.96875C9.57031-7.96875 9.19922-7.59766 9.19922-7.05078Z"/>
  </g>
  <text style="stroke:none;fill:black;font-family:sans-serif;font-size:13;font-weight:bold;" transform="matrix(1 0 0 1 263 1953)">Design Variations</text>
  <text style="stroke:none;fill:black;font-family:sans-serif;font-size:13;" transform="matrix(1 0 0 1 263 1971)">Symbols are supported in up to nine weights and three scales.</text>
  <text style="stroke:none;fill:black;font-family:sans-serif;font-size:13;" transform="matrix(1 0 0 1 263 1989)">For optimal layout with text and other symbols, vertically align</text>
  <text style="stroke:none;fill:black;font-family:sans-serif;font-size:13;" transform="matrix(1 0 0 1 263 2007)">symbols with the adjacent text.</text>
  <line style="fill:none;stroke:#00AEEF;stroke-width:0.5;opacity:1.0;" x1="776" x2="776" y1="1919" y2="1933"/>
  <g transform="matrix(1 0 0 1 776 1933)">
   <path d="M3.31055 0.15625C3.82812 0.15625 4.08203-0.0390625 4.26758-0.585938L5.52734-4.0332L11.2891-4.0332L12.5488-0.585938C12.7344-0.0390625 12.9883 0.15625 13.4961 0.15625C14.0137 0.15625 14.3457-0.15625 14.3457-0.644531C14.3457-0.810547 14.3164-0.966797 14.2383-1.17188L9.6582-13.3691C9.43359-13.9648 9.0332-14.2676 8.4082-14.2676C7.80273-14.2676 7.39258-13.9746 7.17773-13.3789L2.59766-1.16211C2.51953-0.957031 2.49023-0.800781 2.49023-0.634766C2.49023-0.146484 2.80273 0.15625 3.31055 0.15625ZM6.00586-5.51758L8.37891-12.0898L8.42773-12.0898L10.8008-5.51758Z"/>
  </g>
  <line style="fill:none;stroke:#00AEEF;stroke-width:0.5;opacity:1.0;" x1="793.197" x2="793.197" y1="1919" y2="1933"/>
  <text style="stroke:none;fill:black;font-family:sans-serif;font-size:13;font-weight:bold;" transform="matrix(1 0 0 1 776 1953)">Margins</text>
  <text style="stroke:none;fill:black;font-family:sans-serif;font-size:13;" transform="matrix(1 0 0 1 776 1971)">Leading and trailing margins on the left and right side of each symbol</text>
  <text style="stroke:none;fill:black;font-family:sans-serif;font-size:13;" transform="matrix(1 0 0 1 776 1989)">can be adjusted by modifying the x-location of the margin guidelines.</text>
  <text style="stroke:none;fill:black;font-family:sans-serif;font-size:13;" transform="matrix(1 0 0 1 776 2007)">Modifications are automatically applied proportionally to all</text>
  <text style="stroke:none;fill:black;font-family:sans-serif;font-size:13;" transform="matrix(1 0 0 1 776 2025)">scales and weights.</text>
  <g transform="matrix(1 0 0 1 1289 1933)">
   <path d="M2.8418 1.86523L4.54102 3.57422C5.40039 4.44336 6.38672 4.38477 7.31445 3.35938L18.0078-8.42773L17.041-9.4043L6.42578 2.27539C6.07422 2.67578 5.74219 2.77344 5.27344 2.30469L4.10156 1.14258C3.63281 0.683594 3.74023 0.341797 4.14062-0.0195312L15.6152-10.8203L14.6387-11.7871L3.04688-0.898438C2.06055 0.0195312 1.98242 0.996094 2.8418 1.86523ZM9.25781-16.3281C8.83789-15.918 8.80859-15.3418 9.04297-14.9512C9.27734-14.5898 9.73633-14.3555 10.3809-14.5215C11.8457-14.8633 13.3691-14.9219 14.7949-13.9844L14.209-12.5293C13.8672-11.6992 14.043-11.1133 14.5801-10.5664L16.875-8.25195C17.3633-7.76367 17.7734-7.74414 18.3398-7.8418L19.4043-8.03711L20.0684-7.36328L20.0293-6.80664C19.9902-6.30859 20.1172-5.92773 20.6055-5.44922L21.3672-4.70703C21.8457-4.22852 22.4609-4.19922 22.9297-4.66797L25.8398-7.58789C26.3086-8.05664 26.2891-8.65234 25.8105-9.13086L25.0391-9.89258C24.5605-10.3711 24.1895-10.5273 23.7109-10.4883L23.1348-10.4395L22.4902-11.0742L22.7344-12.1973C22.8613-12.7637 22.7051-13.2031 22.1191-13.7891L19.9219-15.9766C16.582-19.2969 12.1484-19.2188 9.25781-16.3281ZM10.752-15.957C13.1836-17.7344 16.4746-17.4316 18.7012-15.2051L21.1328-12.793C21.3672-12.5586 21.4062-12.373 21.3379-12.0312L21.0156-10.5469L22.5195-9.0625L23.5059-9.12109C23.7598-9.13086 23.8379-9.11133 24.0332-8.91602L24.6094-8.33984L22.168-5.89844L21.5918-6.47461C21.3965-6.66992 21.3672-6.74805 21.377-7.01172L21.4453-7.98828L19.9512-9.47266L18.4277-9.21875C18.1055-9.15039 17.959-9.17969 17.7148-9.41406L15.7129-11.416C15.459-11.6504 15.4297-11.8164 15.5859-12.1875L16.4648-14.2773C14.9023-15.7324 12.8711-16.3574 10.8398-15.7617C10.6836-15.7227 10.625-15.8496 10.752-15.957Z"/>
  </g>
  <text style="stroke:none;fill:black;font-family:sans-serif;font-size:13;font-weight:bold;" transform="matrix(1 0 0 1 1289 1953)">Exporting</text>
  <text style="stroke:none;fill:black;font-family:sans-serif;font-size:13;" transform="matrix(1 0 0 1 1289 1971)">Symbols should be outlined when exporting to ensure the</text>
  <text style="stroke:none;fill:black;font-family:sans-serif;font-size:13;" transform="matrix(1 0 0 1 1289 1989)">design is preserved when submitting to Xcode.</text>
  <text id="template-version" style="stroke:none;fill:black;font-family:sans-serif;font-size:13;text-anchor:end;" transform="matrix(1 0 0 1 3036 1933)">Template v.4.0</text>
  <text style="stroke:none;fill:black;font-family:sans-serif;font-size:13;text-anchor:end;" transform="matrix(1 0 0 1 3036 1951)">Requires Xcode 14 or greater</text>
  <text id="descriptive-name" style="stroke:none;fill:black;font-family:sans-serif;font-size:13;text-anchor:end;" transform="matrix(1 0 0 1 3036 1969)">Generated from bandage</text>
  <text style="stroke:none;fill:black;font-family:sans-serif;font-size:13;text-anchor:end;" transform="matrix(1 0 0 1 3036 1987)">Typeset at 100 points</text>
  <text style="stroke:none;fill:black;font-family:sans-serif;font-size:13;" transform="matrix(1 0 0 1 263 726)">Small</text>
  <text style="stroke:none;fill:black;font-family:sans-serif;font-size:13;" transform="matrix(1 0 0 1 263 1156)">Medium</text>
  <text style="stroke:none;fill:black;font-family:sans-serif;font-size:13;" transform="matrix(1 0 0 1 263 1586)">Large</text>
 </g>
 <g id="Guides">
  <g id="H-reference" style="fill:#27AAE1;stroke:none;" transform="matrix(1 0 0 1 339 696)">
   <path d="M0.993654 0L3.63775 0L29.3281-67.1323L30.0303-67.1323L30.0303-70.459L28.1226-70.459ZM11.6885-24.4799L46.9815-24.4799L46.2315-26.7285L12.4385-26.7285ZM55.1196 0L57.7637 0L30.6382-70.459L29.4326-70.459L29.4326-67.1323Z"/>
  </g>
  <line id="Baseline-S" style="fill:none;stroke:#27AAE1;opacity:1;stroke-width:0.5;" x1="263" x2="3036" y1="696" y2="696"/>
  <line id="Capline-S" style="fill:none;stroke:#27AAE1;opacity:1;stroke-width:0.5;" x1="263" x2="3036" y1="625.541" y2="625.541"/>
  <g id="H-reference" style="fill:#27AAE1;stroke:none;" transform="matrix(1 0 0 1 339 1126)">
   <path d="M0.993654 0L3.63775 0L29.3281-67.1323L30.0303-67.1323L30.0303-70.459L28.1226-70.459ZM11.6885-24.4799L46.9815-24.4799L46.2315-26.7285L12.4385-26.7285ZM55.1196 0L57.7637 0L30.6382-70.459L29.4326-70.459L29.4326-67.1323Z"/>
  </g>
  <line id="Baseline-M" style="fill:none;stroke:#27AAE1;opacity:1;stroke-width:0.5;" x1="263" x2="3036" y1="1126" y2="1126"/>
  <line id="Capline-M" style="fill:none;stroke:#27AAE1;opacity:1;stroke-width:0.5;" x1="263" x2="3036" y1="1055.54" y2="1055.54"/>
  <g id="H-reference" style="fill:#27AAE1;stroke:none;" transform="matrix(1 0 0 1 339 1556)">
   <path d="M0.993654 0L3.63775 0L29.3281-67.1323L30.0303-67.1323L30.0303-70.459L28.1226-70.459ZM11.6885-24.4799L46.9815-24.4799L46.2315-26.7285L12.4385-26.7285ZM55.1196 0L57.7637 0L30.6382-70.459L29.4326-70.459L29.4326-67.1323Z"/>
  </g>
  <line id="Baseline-L" style="fill:none;stroke:#27AAE1;opacity:1;stroke-width:0.5;" x1="263" x2="3036" y1="1556" y2="1556"/>
  <line id="Capline-L" style="fill:none;stroke:#27AAE1;opacity:1;stroke-width:0.5;" x1="263" x2="3036" y1="1485.54" y2="1485.54"/>
  <line id="left-margin-Ultralight-S" style="fill:none;stroke:#00AEEF;stroke-width:0.5;opacity:1.0;" x1="513.325" x2="513.325" y1="600.785" y2="720.121"/>
  <line id="right-margin-Ultralight-S" style="fill:none;stroke:#00AEEF;stroke-width:0.5;opacity:1.0;" x1="606.097" x2="606.097" y1="600.785" y2="720.121"/>
  <line id="left-margin-Regular-S" style="fill:none;stroke:#00AEEF;stroke-width:0.5;opacity:1.0;" x1="1400.87" x2="1400.87" y1="600.785" y2="720.121"/>
  <line id="right-margin-Regular-S" style="fill:none;stroke:#00AEEF;stroke-width:0.5;opacity:1.0;" x1="1498.82" x2="1498.82" y1="600.785" y2="720.121"/>
  <line id="left-margin-Black-S" style="fill:none;stroke:#00AEEF;stroke-width:0.5;opacity:1.0;" x1="2881.57" x2="2881.57" y1="600.785" y2="720.121"/>
  <line id="right-margin-Black-S" style="fill:none;stroke:#00AEEF;stroke-width:0.5;opacity:1.0;" x1="2985.23" x2="2985.23" y1="600.785" y2="720.121"/>
 </g>
 <g id="Symbols">
  <g id="Black-S" transform="matrix(1 0 0 1 2881.57 696)">
   <path class="monochrome-0 hierarchical-0:primary SFSymbolsPreview212121" d="M75.8301-45.459L61.8164-59.4727C55.3223-65.9668 49.0723-66.2598 42.334-59.5215L27.7344-44.873C20.9961-38.1348 21.2891-31.9336 27.7832-25.4395L41.7969-11.4258C48.291-4.93164 54.541-4.63867 61.2793-11.377L75.8789-26.0254C82.6172-32.7637 82.3242-38.9648 75.8301-45.459ZM53.1738-51.2695L67.6758-36.8164C67.9688-36.5234 67.9688-36.377 67.6758-36.084L51.1719-19.5801C50.9277-19.3359 50.6836-19.3359 50.4395-19.5801L35.9863-34.1797C35.7422-34.4238 35.7422-34.6191 35.9863-34.8633L52.4902-51.2695C52.7344-51.5137 52.9297-51.5137 53.1738-51.2695ZM15.625 0.732422C25.293 10.4492 40.332 9.61914 50.1465-0.195312L61.2793-11.377L51.1719-19.5801L41.1621-9.52148C36.2305-4.54102 29.4922-3.07617 24.4629-8.10547C19.4824-13.0859 20.8496-19.7266 25.9277-24.8047L35.9863-34.8633L27.7344-44.873L16.6016-33.8379C6.73828-24.0234 5.95703-8.98438 15.625 0.732422ZM87.9883-71.6309C78.3203-81.3477 63.2812-80.5176 53.4668-70.7031L42.334-59.5215L52.4902-51.2695L62.5-61.377C67.4316-66.3086 74.1699-67.8223 79.1504-62.793C84.1309-57.7637 82.7637-51.1719 77.7344-46.1426L67.6758-36.084L75.8789-26.0254L87.0117-37.0605C96.875-46.875 97.6562-61.9141 87.9883-71.6309Z"/>
   <path class="monochrome-1 hierarchical-1:secondary SFSymbolsPreview4D4D4D" d="M44.4824-32.5195C46.0449-32.5195 47.2168-33.9355 47.2656-35.4004C47.3145-37.0117 46.0449-38.2812 44.4336-38.2812C42.8223-38.2812 41.6504-36.9141 41.6504-35.3516C41.6504-33.8379 42.8223-32.5195 44.4824-32.5195ZM51.8066-25.1953C53.3691-25.1953 54.5898-26.4648 54.5898-28.0762C54.5898-29.541 53.3691-30.957 51.8066-30.957C50.1465-30.957 48.9746-29.5898 48.9746-28.0762C48.9746-26.5137 50.1465-25.1953 51.8066-25.1953ZM59.2285-32.7148C60.8398-32.7148 62.0117-34.0332 62.0117-35.5957C62.0117-37.0605 60.8887-38.4277 59.1797-38.4277C57.666-38.4277 56.3965-37.0117 56.3965-35.5957C56.3965-33.9844 57.666-32.7148 59.2285-32.7148ZM51.8066-40.0391C53.5156-40.0391 54.6875-41.4062 54.6875-42.9199C54.6875-44.4336 53.4668-45.752 51.8555-45.752C50.293-45.752 49.0234-44.4824 49.0234-42.8711C49.0234-41.4551 50.293-40.0391 51.8066-40.0391Z"/>
  </g>
  <g id="Regular-S" transform="matrix(1 0 0 1 1400.87 696)">
   <path class="monochrome-0 hierarchical-0:primary SFSymbolsPreview212121" d="M70.4102-42.8223L56.3477-56.8848C51.6113-61.5234 47.1191-61.6699 42.2852-56.8359L27.5879-42.1387C22.7539-37.3047 22.8516-32.8125 27.5391-28.0762L41.6016-14.0137C46.3379-9.32617 50.8301-9.17969 55.6641-14.0625L70.3613-28.7598C75.1953-33.5938 75.0977-38.0859 70.4102-42.8223ZM52.3926-51.5137L65.0391-38.8672C67.0898-36.7676 66.8945-35.2051 64.7461-33.0566L51.3184-19.6777C49.2188-17.4805 47.6074-17.2852 45.5566-19.3848L32.9102-31.9824C30.8594-34.082 31.0547-35.6445 33.2031-37.793L46.6309-51.1719C48.7305-53.3691 50.3418-53.5645 52.3926-51.5137ZM14.9414-1.36719C23.1934 6.83594 34.6191 6.98242 43.7012-2.05078L55.6641-14.0625L50.6836-19.043L38.7695-7.08008C32.8125-1.17188 25.1465-0.390625 19.5312-6.00586C13.916-11.5723 14.6973-19.2871 20.6543-25.1953L32.5684-37.1582L27.5879-42.1387L15.5762-30.127C6.54297-21.0938 6.73828-9.66797 14.9414-1.36719ZM83.0078-69.4824C74.7559-77.6855 63.3301-77.8809 54.248-68.8477L42.2852-56.8359L47.2656-51.8555L59.1797-63.7695C65.1367-69.7266 72.8027-70.459 78.418-64.8926C84.0332-59.2773 83.252-51.6113 77.2949-45.6543L65.3809-33.7402L70.3613-28.7598L82.373-40.7227C91.4062-49.8047 91.2109-61.2305 83.0078-69.4824Z"/>
   <path class="monochrome-1 hierarchical-1:secondary SFSymbolsPreview4D4D4D" d="M41.6504-32.0801C43.5059-32.0801 45.0195-33.6426 45.0195-35.4004C45.0195-37.3047 43.5059-38.8672 41.6504-38.8672C39.6973-38.8672 38.2324-37.3047 38.2324-35.4492C38.2324-33.5938 39.6973-32.0801 41.6504-32.0801ZM48.9746-24.6582C50.8301-24.6582 52.3438-26.2207 52.3438-28.125C52.3438-29.8828 50.8301-31.4453 49.0234-31.4453C47.0703-31.4453 45.5566-29.9316 45.5566-28.0762C45.5566-26.2207 47.0703-24.6582 48.9746-24.6582ZM56.3477-32.0801C58.2031-32.0801 59.7656-33.5938 59.7168-35.498C59.7168-37.3047 58.252-38.8672 56.2988-38.8672C54.4922-38.8672 52.9785-37.2559 52.9785-35.5469C52.9785-33.5938 54.4434-32.0801 56.3477-32.0801ZM48.9258-39.4531C50.8789-39.4531 52.3438-41.0156 52.3438-42.8223C52.3926-44.7266 50.8301-46.2402 48.9746-46.2402C47.1191-46.2402 45.6055-44.7266 45.6055-42.7734C45.6055-41.0645 47.168-39.4531 48.9258-39.4531Z"/>
  </g>
  <g id="Ultralight-S" transform="matrix(1 0 0 1 513.325 696)">
   <path class="monochrome-0 hierarchical-0:primary SFSymbolsPreview212121" d="M66.9136-40.7334L51.8975-55.7495C48.3418-59.2984 45.2119-59.3994 41.5132-55.7007L25.9531-40.1406C22.2998-36.5327 22.3521-33.312 25.9043-29.8017L40.9204-14.7402C44.4761-11.2334 47.6514-11.1777 51.3047-14.7891L66.8648-30.3945C70.5181-34.0478 70.4204-37.2232 66.9136-40.7334ZM50.1675-54.4653L65.6748-38.958C68.2705-36.3589 67.9844-34.5239 65.2002-31.6943L49.9107-16.499C47.1299-13.7115 45.3369-13.3799 42.6504-16.0244L27.1885-31.5283C24.5474-34.1729 24.8335-36.0078 27.6177-38.792L42.9073-53.9873C45.688-56.8203 47.5264-57.1064 50.1675-54.4653ZM13.8062-2.63866C21.2861 4.88332 32.8936 3.66751 40.8404-4.32127L51.3047-14.7891L49.8662-16.5L39.269-5.8086C32.1314 1.28025 22.3765 2.60642 15.3535-4.18947C8.2852-11.0273 9.83842-21.0127 16.9761-28.1015L27.5733-38.793L25.9531-40.1406L15.4854-29.7183C7.45116-21.7295 6.32959-10.1221 13.8062-2.63866ZM78.9663-67.8477C71.4864-75.3696 59.9243-74.2027 51.9776-66.2139L41.5132-55.7007L42.9517-54.0351L53.5489-64.6777C60.6866-71.8154 70.4414-73.1382 77.4644-66.3457C84.5327-59.5044 82.9795-49.5225 75.8418-42.3848L65.2446-31.7422L66.8648-30.3945L77.3326-40.8135C85.3667-48.8057 86.3975-60.3677 78.9663-67.8477Z"/>
   <path class="monochrome-1 hierarchical-1:secondary SFSymbolsPreview4D4D4D" d="M38.6533-32.6704C40.0093-32.6704 41.2051-33.915 41.2051-35.2188C41.2051-36.669 40.0093-37.8682 38.6533-37.8682C37.1543-37.8682 36.0982-36.669 36.0982-35.2676C36.0982-33.8662 37.1089-32.6704 38.6533-32.6704ZM46.4317-24.8853C47.7876-24.8853 48.9834-26.0845 48.9834-27.5347C48.9834-28.793 47.7876-30.0376 46.4351-30.0376C44.9361-30.0376 43.8765-28.8418 43.8765-27.4858C43.8765-26.0845 44.9815-24.8853 46.4317-24.8853ZM54.2134-32.7158C55.6148-32.7158 56.7686-33.9116 56.7652-35.3164C56.7652-36.7144 55.6182-37.8682 54.21-37.8682C52.8574-37.8682 51.6616-36.6655 51.6616-35.3652C51.6616-33.9116 52.8086-32.7158 54.2134-32.7158ZM46.3828-40.5884C47.8364-40.5884 48.938-41.6968 48.9834-43.0947C49.0323-44.4995 47.833-45.6953 46.3863-45.6953C45.0303-45.6953 43.8799-44.4995 43.8799-43.0459C43.8799-41.7456 45.0791-40.5884 46.3828-40.5884Z"/>
  </g>
 </g>
</svg>
