<?xml version="1.0" encoding="UTF-8"?>
<!--Generator: Apple Native CoreSVG 175.5-->
<!DOCTYPE svg
PUBLIC "-//W3C//DTD SVG 1.1//EN"
       "http://www.w3.org/Graphics/SVG/1.1/DTD/svg11.dtd">
<svg version="1.1" xmlns="http://www.w3.org/2000/svg" xmlns:xlink="http://www.w3.org/1999/xlink" width="3300" height="2200">
 <!--glyph: "uni100906.medium", point size: 100.0, font version: "18.0d12e2", template writer version: "101"-->
 <style>.monochrome-0 {fill:#000000}

.multicolor-0:systemBlueColor {fill:#007AFF}

.SFSymbolsPreview007AFF {fill:#007AFF;opacity:1.0}
</style>
 <g id="Notes">
  <rect height="2200" id="artboard" style="fill:white;opacity:1" width="3300" x="0" y="0"/>
  <line style="fill:none;stroke:black;opacity:1;stroke-width:0.5;" x1="263" x2="3036" y1="292" y2="292"/>
  <text style="stroke:none;fill:black;font-family:sans-serif;font-size:13;font-weight:bold;" transform="matrix(1 0 0 1 263 322)">Weight/Scale Variations</text>
  <text style="stroke:none;fill:black;font-family:sans-serif;font-size:13;text-anchor:middle;" transform="matrix(1 0 0 1 559.711 322)">Ultralight</text>
  <text style="stroke:none;fill:black;font-family:sans-serif;font-size:13;text-anchor:middle;" transform="matrix(1 0 0 1 856.422 322)">Thin</text>
  <text style="stroke:none;fill:black;font-family:sans-serif;font-size:13;text-anchor:middle;" transform="matrix(1 0 0 1 1153.13 322)">Light</text>
  <text style="stroke:none;fill:black;font-family:sans-serif;font-size:13;text-anchor:middle;" transform="matrix(1 0 0 1 1449.84 322)">Regular</text>
  <text style="stroke:none;fill:black;font-family:sans-serif;font-size:13;text-anchor:middle;" transform="matrix(1 0 0 1 1746.56 322)">Medium</text>
  <text style="stroke:none;fill:black;font-family:sans-serif;font-size:13;text-anchor:middle;" transform="matrix(1 0 0 1 2043.27 322)">Semibold</text>
  <text style="stroke:none;fill:black;font-family:sans-serif;font-size:13;text-anchor:middle;" transform="matrix(1 0 0 1 2339.98 322)">Bold</text>
  <text style="stroke:none;fill:black;font-family:sans-serif;font-size:13;text-anchor:middle;" transform="matrix(1 0 0 1 2636.69 322)">Heavy</text>
  <text style="stroke:none;fill:black;font-family:sans-serif;font-size:13;text-anchor:middle;" transform="matrix(1 0 0 1 2933.4 322)">Black</text>
  <line style="fill:none;stroke:black;opacity:1;stroke-width:0.5;" x1="263" x2="3036" y1="1903" y2="1903"/>
  <g transform="matrix(1 0 0 1 263 1933)">
   <path d="M9.24805 0.830078C13.5547 0.830078 17.1387-2.74414 17.1387-7.05078C17.1387-11.3574 13.5449-14.9316 9.23828-14.9316C4.94141-14.9316 1.36719-11.3574 1.36719-7.05078C1.36719-2.74414 4.95117 0.830078 9.24805 0.830078ZM9.24805-0.654297C5.70312-0.654297 2.87109-3.49609 2.87109-7.05078C2.87109-10.6055 5.69336-13.4473 9.23828-13.4473C12.793-13.4473 15.6445-10.6055 15.6445-7.05078C15.6445-3.49609 12.8027-0.654297 9.24805-0.654297ZM5.6543-7.05078C5.6543-6.62109 5.95703-6.32812 6.40625-6.32812L8.50586-6.32812L8.50586-4.20898C8.50586-3.76953 8.79883-3.4668 9.22852-3.4668C9.67773-3.4668 9.9707-3.76953 9.9707-4.20898L9.9707-6.32812L12.0898-6.32812C12.5293-6.32812 12.832-6.62109 12.832-7.05078C12.832-7.49023 12.5293-7.79297 12.0898-7.79297L9.9707-7.79297L9.9707-9.90234C9.9707-10.3516 9.67773-10.6543 9.22852-10.6543C8.79883-10.6543 8.50586-10.3516 8.50586-9.90234L8.50586-7.79297L6.40625-7.79297C5.95703-7.79297 5.6543-7.49023 5.6543-7.05078Z"/>
  </g>
  <g transform="matrix(1 0 0 1 281.867 1933)">
   <path d="M11.709 2.91016C17.1582 2.91016 21.6699-1.61133 21.6699-7.05078C21.6699-12.5 17.1484-17.0117 11.6992-17.0117C6.25977-17.0117 1.74805-12.5 1.74805-7.05078C1.74805-1.61133 6.26953 2.91016 11.709 2.91016ZM11.709 1.25C7.09961 1.25 3.41797-2.44141 3.41797-7.05078C3.41797-11.6602 7.08984-15.3516 11.6992-15.3516C16.3086-15.3516 20.0098-11.6602 20.0098-7.05078C20.0098-2.44141 16.3184 1.25 11.709 1.25ZM7.17773-7.05078C7.17773-6.57227 7.50977-6.25 8.00781-6.25L10.8789-6.25L10.8789-3.36914C10.8789-2.88086 11.2109-2.53906 11.6895-2.53906C12.1777-2.53906 12.5195-2.87109 12.5195-3.36914L12.5195-6.25L15.4004-6.25C15.8887-6.25 16.2305-6.57227 16.2305-7.05078C16.2305-7.53906 15.8887-7.88086 15.4004-7.88086L12.5195-7.88086L12.5195-10.752C12.5195-11.25 12.1777-11.5918 11.6895-11.5918C11.2109-11.5918 10.8789-11.25 10.8789-10.752L10.8789-7.88086L8.00781-7.88086C7.50977-7.88086 7.17773-7.53906 7.17773-7.05078Z"/>
  </g>
  <g transform="matrix(1 0 0 1 305.646 1933)">
   <path d="M14.9707 5.66406C21.9336 5.66406 27.6953-0.0976562 27.6953-7.05078C27.6953-14.0137 21.9238-19.7754 14.9609-19.7754C8.00781-19.7754 2.25586-14.0137 2.25586-7.05078C2.25586-0.0976562 8.01758 5.66406 14.9707 5.66406ZM14.9707 3.84766C8.93555 3.84766 4.08203-1.01562 4.08203-7.05078C4.08203-13.0957 8.92578-17.9492 14.9609-17.9492C21.0059-17.9492 25.8691-13.0957 25.8691-7.05078C25.8691-1.01562 21.0156 3.84766 14.9707 3.84766ZM9.19922-7.05078C9.19922-6.5332 9.57031-6.17188 10.1172-6.17188L14.0625-6.17188L14.0625-2.2168C14.0625-1.67969 14.4336-1.29883 14.9512-1.29883C15.4883-1.29883 15.8594-1.66992 15.8594-2.2168L15.8594-6.17188L19.8145-6.17188C20.3516-6.17188 20.7324-6.5332 20.7324-7.05078C20.7324-7.59766 20.3613-7.96875 19.8145-7.96875L15.8594-7.96875L15.8594-11.9141C15.8594-12.4609 15.4883-12.8418 14.9512-12.8418C14.4336-12.8418 14.0625-12.4609 14.0625-11.9141L14.0625-7.96875L10.1172-7.96875C9.57031-7.96875 9.19922-7.59766 9.19922-7.05078Z"/>
  </g>
  <text style="stroke:none;fill:black;font-family:sans-serif;font-size:13;font-weight:bold;" transform="matrix(1 0 0 1 263 1953)">Design Variations</text>
  <text style="stroke:none;fill:black;font-family:sans-serif;font-size:13;" transform="matrix(1 0 0 1 263 1971)">Symbols are supported in up to nine weights and three scales.</text>
  <text style="stroke:none;fill:black;font-family:sans-serif;font-size:13;" transform="matrix(1 0 0 1 263 1989)">For optimal layout with text and other symbols, vertically align</text>
  <text style="stroke:none;fill:black;font-family:sans-serif;font-size:13;" transform="matrix(1 0 0 1 263 2007)">symbols with the adjacent text.</text>
  <line style="fill:none;stroke:#00AEEF;stroke-width:0.5;opacity:1.0;" x1="776" x2="776" y1="1919" y2="1933"/>
  <g transform="matrix(1 0 0 1 776 1933)">
   <path d="M3.31055 0.15625C3.82812 0.15625 4.08203-0.0390625 4.26758-0.585938L5.52734-4.0332L11.2891-4.0332L12.5488-0.585938C12.7344-0.0390625 12.9883 0.15625 13.4961 0.15625C14.0137 0.15625 14.3457-0.15625 14.3457-0.644531C14.3457-0.810547 14.3164-0.966797 14.2383-1.17188L9.6582-13.3691C9.43359-13.9648 9.0332-14.2676 8.4082-14.2676C7.80273-14.2676 7.39258-13.9746 7.17773-13.3789L2.59766-1.16211C2.51953-0.957031 2.49023-0.800781 2.49023-0.634766C2.49023-0.146484 2.80273 0.15625 3.31055 0.15625ZM6.00586-5.51758L8.37891-12.0898L8.42773-12.0898L10.8008-5.51758Z"/>
  </g>
  <line style="fill:none;stroke:#00AEEF;stroke-width:0.5;opacity:1.0;" x1="793.197" x2="793.197" y1="1919" y2="1933"/>
  <text style="stroke:none;fill:black;font-family:sans-serif;font-size:13;font-weight:bold;" transform="matrix(1 0 0 1 776 1953)">Margins</text>
  <text style="stroke:none;fill:black;font-family:sans-serif;font-size:13;" transform="matrix(1 0 0 1 776 1971)">Leading and trailing margins on the left and right side of each symbol</text>
  <text style="stroke:none;fill:black;font-family:sans-serif;font-size:13;" transform="matrix(1 0 0 1 776 1989)">can be adjusted by modifying the x-location of the margin guidelines.</text>
  <text style="stroke:none;fill:black;font-family:sans-serif;font-size:13;" transform="matrix(1 0 0 1 776 2007)">Modifications are automatically applied proportionally to all</text>
  <text style="stroke:none;fill:black;font-family:sans-serif;font-size:13;" transform="matrix(1 0 0 1 776 2025)">scales and weights.</text>
  <g transform="matrix(1 0 0 1 1289 1933)">
   <path d="M2.8418 1.86523L4.54102 3.57422C5.40039 4.44336 6.38672 4.38477 7.31445 3.35938L18.0078-8.42773L17.041-9.4043L6.42578 2.27539C6.07422 2.67578 5.74219 2.77344 5.27344 2.30469L4.10156 1.14258C3.63281 0.683594 3.74023 0.341797 4.14062-0.0195312L15.6152-10.8203L14.6387-11.7871L3.04688-0.898438C2.06055 0.0195312 1.98242 0.996094 2.8418 1.86523ZM9.25781-16.3281C8.83789-15.918 8.80859-15.3418 9.04297-14.9512C9.27734-14.5898 9.73633-14.3555 10.3809-14.5215C11.8457-14.8633 13.3691-14.9219 14.7949-13.9844L14.209-12.5293C13.8672-11.6992 14.043-11.1133 14.5801-10.5664L16.875-8.25195C17.3633-7.76367 17.7734-7.74414 18.3398-7.8418L19.4043-8.03711L20.0684-7.36328L20.0293-6.80664C19.9902-6.30859 20.1172-5.92773 20.6055-5.44922L21.3672-4.70703C21.8457-4.22852 22.4609-4.19922 22.9297-4.66797L25.8398-7.58789C26.3086-8.05664 26.2891-8.65234 25.8105-9.13086L25.0391-9.89258C24.5605-10.3711 24.1895-10.5273 23.7109-10.4883L23.1348-10.4395L22.4902-11.0742L22.7344-12.1973C22.8613-12.7637 22.7051-13.2031 22.1191-13.7891L19.9219-15.9766C16.582-19.2969 12.1484-19.2188 9.25781-16.3281ZM10.752-15.957C13.1836-17.7344 16.4746-17.4316 18.7012-15.2051L21.1328-12.793C21.3672-12.5586 21.4062-12.373 21.3379-12.0312L21.0156-10.5469L22.5195-9.0625L23.5059-9.12109C23.7598-9.13086 23.8379-9.11133 24.0332-8.91602L24.6094-8.33984L22.168-5.89844L21.5918-6.47461C21.3965-6.66992 21.3672-6.74805 21.377-7.01172L21.4453-7.98828L19.9512-9.47266L18.4277-9.21875C18.1055-9.15039 17.959-9.17969 17.7148-9.41406L15.7129-11.416C15.459-11.6504 15.4297-11.8164 15.5859-12.1875L16.4648-14.2773C14.9023-15.7324 12.8711-16.3574 10.8398-15.7617C10.6836-15.7227 10.625-15.8496 10.752-15.957Z"/>
  </g>
  <text style="stroke:none;fill:black;font-family:sans-serif;font-size:13;font-weight:bold;" transform="matrix(1 0 0 1 1289 1953)">Exporting</text>
  <text style="stroke:none;fill:black;font-family:sans-serif;font-size:13;" transform="matrix(1 0 0 1 1289 1971)">Symbols should be outlined when exporting to ensure the</text>
  <text style="stroke:none;fill:black;font-family:sans-serif;font-size:13;" transform="matrix(1 0 0 1 1289 1989)">design is preserved when submitting to Xcode.</text>
  <text id="template-version" style="stroke:none;fill:black;font-family:sans-serif;font-size:13;text-anchor:end;" transform="matrix(1 0 0 1 3036 1933)">Template v.4.0</text>
  <text style="stroke:none;fill:black;font-family:sans-serif;font-size:13;text-anchor:end;" transform="matrix(1 0 0 1 3036 1951)">Requires Xcode 14 or greater</text>
  <text id="descriptive-name" style="stroke:none;fill:black;font-family:sans-serif;font-size:13;text-anchor:end;" transform="matrix(1 0 0 1 3036 1969)">Generated from network</text>
  <text style="stroke:none;fill:black;font-family:sans-serif;font-size:13;text-anchor:end;" transform="matrix(1 0 0 1 3036 1987)">Typeset at 100 points</text>
  <text style="stroke:none;fill:black;font-family:sans-serif;font-size:13;" transform="matrix(1 0 0 1 263 726)">Small</text>
  <text style="stroke:none;fill:black;font-family:sans-serif;font-size:13;" transform="matrix(1 0 0 1 263 1156)">Medium</text>
  <text style="stroke:none;fill:black;font-family:sans-serif;font-size:13;" transform="matrix(1 0 0 1 263 1586)">Large</text>
 </g>
 <g id="Guides">
  <g id="H-reference" style="fill:#27AAE1;stroke:none;" transform="matrix(1 0 0 1 339 696)">
   <path d="M0.993654 0L3.63775 0L29.3281-67.1323L30.0303-67.1323L30.0303-70.459L28.1226-70.459ZM11.6885-24.4799L46.9815-24.4799L46.2315-26.7285L12.4385-26.7285ZM55.1196 0L57.7637 0L30.6382-70.459L29.4326-70.459L29.4326-67.1323Z"/>
  </g>
  <line id="Baseline-S" style="fill:none;stroke:#27AAE1;opacity:1;stroke-width:0.5;" x1="263" x2="3036" y1="696" y2="696"/>
  <line id="Capline-S" style="fill:none;stroke:#27AAE1;opacity:1;stroke-width:0.5;" x1="263" x2="3036" y1="625.541" y2="625.541"/>
  <g id="H-reference" style="fill:#27AAE1;stroke:none;" transform="matrix(1 0 0 1 339 1126)">
   <path d="M0.993654 0L3.63775 0L29.3281-67.1323L30.0303-67.1323L30.0303-70.459L28.1226-70.459ZM11.6885-24.4799L46.9815-24.4799L46.2315-26.7285L12.4385-26.7285ZM55.1196 0L57.7637 0L30.6382-70.459L29.4326-70.459L29.4326-67.1323Z"/>
  </g>
  <line id="Baseline-M" style="fill:none;stroke:#27AAE1;opacity:1;stroke-width:0.5;" x1="263" x2="3036" y1="1126" y2="1126"/>
  <line id="Capline-M" style="fill:none;stroke:#27AAE1;opacity:1;stroke-width:0.5;" x1="263" x2="3036" y1="1055.54" y2="1055.54"/>
  <g id="H-reference" style="fill:#27AAE1;stroke:none;" transform="matrix(1 0 0 1 339 1556)">
   <path d="M0.993654 0L3.63775 0L29.3281-67.1323L30.0303-67.1323L30.0303-70.459L28.1226-70.459ZM11.6885-24.4799L46.9815-24.4799L46.2315-26.7285L12.4385-26.7285ZM55.1196 0L57.7637 0L30.6382-70.459L29.4326-70.459L29.4326-67.1323Z"/>
  </g>
  <line id="Baseline-L" style="fill:none;stroke:#27AAE1;opacity:1;stroke-width:0.5;" x1="263" x2="3036" y1="1556" y2="1556"/>
  <line id="Capline-L" style="fill:none;stroke:#27AAE1;opacity:1;stroke-width:0.5;" x1="263" x2="3036" y1="1485.54" y2="1485.54"/>
  <line id="left-margin-Ultralight-S" style="fill:none;stroke:#00AEEF;stroke-width:0.5;opacity:1.0;" x1="515.649" x2="515.649" y1="600.785" y2="720.121"/>
  <line id="right-margin-Ultralight-S" style="fill:none;stroke:#00AEEF;stroke-width:0.5;opacity:1.0;" x1="603.773" x2="603.773" y1="600.785" y2="720.121"/>
  <line id="left-margin-Regular-S" style="fill:none;stroke:#00AEEF;stroke-width:0.5;opacity:1.0;" x1="1403.58" x2="1403.58" y1="600.785" y2="720.121"/>
  <line id="right-margin-Regular-S" style="fill:none;stroke:#00AEEF;stroke-width:0.5;opacity:1.0;" x1="1496.11" x2="1496.11" y1="600.785" y2="720.121"/>
  <line id="left-margin-Black-S" style="fill:none;stroke:#00AEEF;stroke-width:0.5;opacity:1.0;" x1="2884.57" x2="2884.57" y1="600.785" y2="720.121"/>
  <line id="right-margin-Black-S" style="fill:none;stroke:#00AEEF;stroke-width:0.5;opacity:1.0;" x1="2982.23" x2="2982.23" y1="600.785" y2="720.121"/>
 </g>
 <g id="Symbols">
  <g id="Black-S" transform="matrix(1 0 0 1 2884.57 696)">
   <path class="monochrome-0 multicolor-0:systemBlueColor SFSymbolsPreview007AFF" d="M48.8281 6.78711C71.9727 6.78711 90.8203-12.0605 90.8203-35.2051C90.8203-58.3496 71.9727-77.1973 48.8281-77.1973C25.6836-77.1973 6.83594-58.3496 6.83594-35.2051C6.83594-12.0605 25.6836 6.78711 48.8281 6.78711ZM48.8281-3.95508C31.6406-3.95508 17.5781-18.0176 17.5781-35.2051C17.5781-52.3926 31.6406-66.4551 48.8281-66.4551C66.0156-66.4551 80.0781-52.3926 80.0781-35.2051C80.0781-18.0176 66.0156-3.95508 48.8281-3.95508ZM11.5723-31.4941C31.7871-13.5742 61.1816-10.3516 84.668-23.291L84.3262-32.4707C62.2559-17.8711 32.666-21.1426 13.8672-40.2832ZM31.1035-5.0293L40.5762-3.02734C37.0117-10.498 35.1074-18.75 35.1074-27.1484C35.1074-45.0684 43.6035-61.6699 58.252-72.3145L49.8535-75.8301C35.4492-63.7207 27.1484-45.8496 27.1484-27.1484C27.1484-19.6289 28.4668-12.2559 31.1035-5.0293ZM57.6172-0.976562L65.0391-4.3457C57.4219-14.209 53.3203-26.2207 53.3203-38.7207C53.3203-50.3906 56.8848-61.6211 63.623-70.9961L55.8594-73.6816C49.0234-63.3301 45.3125-51.1719 45.3125-38.7207C45.3125-25.0977 49.5605-12.0117 57.6172-0.976562ZM16.0645-52.6367C24.9512-41.6016 38.5742-35.1562 52.7832-35.1562C64.502-35.1562 75.8789-39.502 84.668-47.3633L80.8594-54.8828C73.291-47.2656 63.3789-43.1152 52.7832-43.1152C39.4043-43.1152 27.2949-49.6094 19.7754-60.9863ZM78.7598-14.6484L84.2773-20.7031C71.0938-27.6367 62.9883-41.0156 62.9883-55.7617C62.9883-60.9375 64.0137-66.2109 66.1621-71.3867L58.5449-73.5352C56.2012-67.9199 55.0293-61.9141 55.0293-55.7617C55.0293-38.8184 64.0137-23.1934 78.7598-14.6484ZM33.4961-35.4492C37.793-35.4492 41.3086-38.9648 41.3086-43.2617C41.3086-47.5586 37.793-51.0742 33.4961-51.0742C29.1992-51.0742 25.6348-47.5586 25.6348-43.2617C25.6348-38.9648 29.1992-35.4492 33.4961-35.4492ZM51.6602-12.207C56.0547-12.207 59.5703-15.7715 59.5703-20.166C59.5703-24.6094 56.0059-28.1738 51.6602-28.1738C47.168-28.1738 43.6035-24.6094 43.6035-20.166C43.6035-15.7715 47.168-12.207 51.6602-12.207ZM63.2324-32.373C67.627-32.373 71.1914-35.8887 71.1914-40.332C71.1914-44.7266 67.627-48.291 63.2324-48.291C58.7891-48.291 55.2734-44.7266 55.2734-40.332C55.2734-35.8887 58.7891-32.373 63.2324-32.373Z"/>
  </g>
  <g id="Regular-S" transform="matrix(1 0 0 1 1403.58 696)">
   <path class="monochrome-0 multicolor-0:systemBlueColor SFSymbolsPreview007AFF" d="M46.2402 4.15039C67.7734 4.15039 85.6934-13.7207 85.6934-35.2539C85.6934-56.7871 67.7246-74.6582 46.1914-74.6582C24.707-74.6582 6.83594-56.7871 6.83594-35.2539C6.83594-13.7207 24.7559 4.15039 46.2402 4.15039ZM46.2402-1.70898C27.9785-1.70898 12.7441-16.9922 12.7441-35.2539C12.7441-53.5156 27.9297-68.7988 46.1914-68.7988C64.502-68.7988 79.7852-53.5156 79.7852-35.2539C79.7852-16.9922 64.5508-1.70898 46.2402-1.70898ZM9.08203-29.3945C29.0039-12.2559 57.7148-9.08203 80.7617-21.3867L80.5176-27.2461C58.3008-13.9648 29.6387-17.1875 10.4492-35.1074ZM28.3691-3.02734L34.5215-1.70898C31.543-8.69141 30.0293-16.0645 29.9805-23.6328C29.7363-41.8457 37.8906-58.9844 52.1484-70.4102L46.8262-72.6562C32.6172-60.3027 24.5605-42.4316 24.8047-23.6328C24.8535-16.6504 26.0254-9.7168 28.3691-3.02734ZM53.5645 0.585938L58.3496-1.61133C51.0742-11.7188 47.1191-23.7305 47.1191-36.1816C47.1191-47.8516 50.4883-59.082 56.9336-68.6523L51.8555-70.4102C45.3613-60.1562 41.9434-48.291 41.9434-36.1816C41.9434-22.9492 45.9473-10.2051 53.5645 0.585938ZM13.5254-51.709C22.6074-41.2598 35.791-35.2051 49.7559-35.2539C61.084-35.2539 71.9238-39.209 80.5176-46.5332L78.0762-51.3184C70.2637-44.2871 60.3027-40.4297 49.7559-40.4297C36.4258-40.4297 24.0234-46.5332 15.9668-57.0801ZM75.9766-13.5254L79.4922-17.4316C66.5039-24.9023 58.5449-38.5742 58.4961-53.5645C58.4961-58.7891 59.4238-63.9648 61.2793-68.7988L56.2988-70.166C54.2969-64.8926 53.3203-59.3262 53.3203-53.5645C53.3691-37.1582 61.9141-22.0215 75.9766-13.5254ZM29.7852-35.791C33.2031-35.791 36.0352-38.5742 36.0352-42.041C36.0352-45.459 33.2031-48.291 29.7852-48.291C26.3184-48.291 23.5352-45.459 23.5352-42.041C23.5352-38.5742 26.3184-35.791 29.7852-35.791ZM47.5098-10.5469C50.9277-10.5469 53.7109-13.3301 53.7109-16.7969C53.7109-20.2148 50.9277-22.998 47.5098-22.998C44.043-22.998 41.2109-20.2148 41.2109-16.7969C41.2109-13.3301 44.043-10.5469 47.5098-10.5469ZM59.1309-32.7148C62.5488-32.7148 65.332-35.498 65.332-38.9648C65.332-42.3828 62.5488-45.166 59.1309-45.166C55.6641-45.166 52.8809-42.3828 52.8809-38.9648C52.8809-35.498 55.6641-32.7148 59.1309-32.7148Z"/>
  </g>
  <g id="Ultralight-S" transform="matrix(1 0 0 1 515.649 696)">
   <path class="monochrome-0 multicolor-0:systemBlueColor SFSymbolsPreview007AFF" d="M44.0606 1.97072C64.5039 1.97072 81.2886-14.8105 81.2886-35.2539C81.2886-55.6973 64.5005-72.4785 44.0571-72.4785C23.5718-72.4785 6.83594-55.6973 6.83594-35.2539C6.83594-14.8105 23.5752 1.97072 44.0606 1.97072ZM44.0606-0.165051C24.709-0.165051 8.97513-15.9024 8.97513-35.2539C8.97513-54.6055 24.7056-70.3428 44.0571-70.3428C63.3667-70.3428 79.1494-54.6055 79.1494-35.2539C79.1494-15.9024 63.3701-0.165051 44.0606-0.165051ZM8.12843-30.8022C27.8687-14.3901 55.2627-11.3071 77.8555-21.9316L78.2017-24.5215C55.5762-13.2383 27.7315-16.3247 8.13332-33.5635ZM25.6446-4.75292L28.2549-3.6162C27.3199-6.19387 26.6236-8.79889 26.1206-11.5084C21.4263-34.2169 29.6715-56.7139 45.7911-71.2729L43.148-71.7481C27.3042-56.67 19.5655-34.1216 24.0781-11.1451C24.4448-8.97613 25.0264-6.81057 25.6446-4.75292ZM51.0215-0.231439L53.1729-0.884771C46.6695-10.856 42.896-22.7315 42.896-35.4551C42.896-48.124 46.6284-59.9448 53.1192-69.9238L51.2197-70.8188C44.5894-60.5649 40.7627-48.4272 40.7627-35.4551C40.7627-22.5405 44.4942-10.4321 51.0215-0.231439ZM10.6192-50.4829C21.7446-42.0771 35.7002-37.2485 50.6641-37.4336C60.9932-37.5698 70.6978-40.1626 79.2461-44.6714L78.5757-46.732C70.2183-42.2891 60.7114-39.7485 50.6186-39.5669C35.9717-39.249 22.2979-44.1719 11.4712-52.4937ZM74.1148-14.9785L75.1783-16.7505C62.9619-23.5855 54.5943-36.3945 53.7735-51.4302C53.4556-57.4268 54.4288-63.3291 56.5113-68.6626L54.4824-69.3486C52.3443-63.7573 51.3223-57.646 51.6401-51.294C52.4609-35.6143 61.3237-22.1577 74.1148-14.9785ZM26.7427-37.5166C29.3433-37.5166 31.5396-39.7095 31.5396-42.3589C31.5396-45.0049 29.3433-47.1558 26.7427-47.1558C24.0479-47.1558 21.855-45.0049 21.855-42.3589C21.855-39.7095 24.0479-37.5166 26.7427-37.5166ZM45.5571-11.9546C48.2486-11.9546 50.3052-14.0112 50.3052-16.7061C50.3052-19.3975 48.2486-21.4541 45.5571-21.4541C42.8623-21.4541 40.8022-19.3975 40.8022-16.7061C40.8022-14.0112 42.8623-11.9546 45.5571-11.9546ZM55.8614-33.8047C58.2803-33.8047 60.2915-35.7705 60.2915-38.2383C60.2915-40.6118 58.2803-42.6231 55.8614-42.6231C53.439-42.6231 51.4277-40.6118 51.4277-38.2383C51.4277-35.7705 53.439-33.8047 55.8614-33.8047Z"/>
  </g>
 </g>
</svg>
